<svg width="172" height="36" viewBox="0 0 172 36" fill="none" xmlns="http://www.w3.org/2000/svg">
<path d="M2 18C2 12.4772 6.47715 8 12 8H23.9298C29.4527 8 33.9298 12.4772 33.9298 18C33.9298 23.5228 29.4527 28 23.9298 28H12C6.47715 28 2 23.5228 2 18Z" fill="#CDE200" stroke="#161C24" stroke-width="4"/>
<path d="M4 18H32C32 21.3137 28.7541 24 24.75 24H11.25C7.24594 24 4 21.3137 4 18Z" fill="#9FB500"/>
<path d="M30.4737 18C30.4737 21.7207 27.4575 24.7369 23.7368 24.7369C20.0162 24.7369 17 21.7207 17 18C17 14.2794 20.0162 11.2632 23.7368 11.2632C27.4575 11.2632 30.4737 14.2794 30.4737 18Z" fill="#161C24"/>
<path d="M23.7362 13.9298C23.7413 15.2865 24.5626 18 27.8064 18C26.4519 18.0051 23.7453 18.8236 23.7362 22.0539C23.7362 22.0593 23.7362 22.0647 23.7362 22.0702C23.7362 22.0647 23.7362 22.0593 23.7362 22.0539C23.7349 20.6918 22.9215 18 19.666 18C21.0227 17.9948 23.7362 17.1736 23.7362 13.9298Z" fill="#CDE200"/>
<path d="M26.1227 13.9298C26.1248 14.4912 26.4647 15.614 27.8069 15.614C27.2464 15.6162 26.1265 15.9548 26.1227 17.2915C26.1227 17.2937 26.1227 17.296 26.1227 17.2982C26.1227 17.296 26.1227 17.2937 26.1227 17.2915C26.1221 16.7279 25.7856 15.614 24.4385 15.614C24.9999 15.6119 26.1227 15.2721 26.1227 13.9298Z" fill="#CDE200"/>
<path d="M46.75 11.959C47.5469 11.959 48.3086 12.0996 49.0352 12.3809C49.7734 12.6504 50.4297 13.0488 51.0039 13.5762C51.5781 14.1035 52.0293 14.748 52.3574 15.5098C52.6973 16.2715 52.8672 17.1387 52.8672 18.1113C52.8672 19.084 52.6973 19.9512 52.3574 20.7129C52.0293 21.4746 51.5781 22.1191 51.0039 22.6465C50.4297 23.1738 49.7734 23.5781 49.0352 23.8594C48.3086 24.1289 47.5469 24.2637 46.75 24.2637C45.9531 24.2637 45.1855 24.1289 44.4473 23.8594C43.7207 23.5781 43.0703 23.1738 42.4961 22.6465C41.9219 22.1191 41.4648 21.4746 41.125 20.7129C40.7969 19.9512 40.6328 19.084 40.6328 18.1113C40.6328 17.1387 40.7969 16.2715 41.125 15.5098C41.4648 14.748 41.9219 14.1035 42.4961 13.5762C43.0703 13.0488 43.7207 12.6504 44.4473 12.3809C45.1855 12.0996 45.9531 11.959 46.75 11.959ZM46.75 15.0352C46.2227 15.0352 45.7539 15.1699 45.3438 15.4395C44.9336 15.709 44.6055 16.0781 44.3594 16.5469C44.125 17.0039 44.0078 17.5254 44.0078 18.1113C44.0078 18.6973 44.125 19.2246 44.3594 19.6934C44.6055 20.1504 44.9336 20.5137 45.3438 20.7832C45.7539 21.0527 46.2227 21.1875 46.75 21.1875C47.2773 21.1875 47.7461 21.0527 48.1562 20.7832C48.5781 20.5137 48.9062 20.1504 49.1406 19.6934C49.375 19.2246 49.4922 18.6973 49.4922 18.1113C49.4922 17.5254 49.375 17.0039 49.1406 16.5469C48.9062 16.0781 48.5781 15.709 48.1562 15.4395C47.7461 15.1699 47.2773 15.0352 46.75 15.0352ZM56.8242 15.0352V16.1953C57.1055 15.8086 57.4453 15.4746 57.8438 15.1934C58.2539 14.9121 58.7578 14.7715 59.3555 14.7715C60.2695 14.7715 61.0137 15.082 61.5879 15.7031C62.1738 16.3242 62.4668 17.2441 62.4668 18.4629V24H59.4434L59.4258 18.9375C59.4258 18.4922 59.3027 18.1816 59.0566 18.0059C58.8105 17.8184 58.5352 17.7246 58.2305 17.7246C57.9023 17.7246 57.627 17.8125 57.4043 17.9883C57.1816 18.1523 56.9883 18.3516 56.8242 18.5859V24H53.8008V15.0352H56.8242ZM66.8633 11.3438V24H63.8398V11.3438H66.8633ZM70.6621 15.0352L72.6484 19.7988L74.5645 15.0352H77.9395L71.5059 28.2188H68.1309L70.9609 23.2266L67.1816 15.0352H70.6621Z" fill="#161C24"/>
<path d="M83.4785 12.2227C84.0762 12.2227 84.6562 12.3223 85.2188 12.5215C85.793 12.7207 86.3086 13.0137 86.7656 13.4004C87.2227 13.7871 87.5859 14.2559 87.8555 14.8066C88.1367 15.3574 88.2773 15.9785 88.2773 16.6699C88.2773 17.5723 88.0664 18.3516 87.6445 19.0078C87.2227 19.6523 86.6719 20.1445 85.9922 20.4844C85.3125 20.8242 84.5918 20.9941 83.8301 20.9941C83.3848 20.9941 82.9863 20.9531 82.6348 20.8711C82.2832 20.7773 81.9785 20.6602 81.7207 20.5195V24H78.4336V12.2227H83.4785ZM81.7207 15.2988V18.0234C81.9199 18.0938 82.1309 18.1523 82.3535 18.1992C82.5879 18.2461 82.834 18.2695 83.0918 18.2695C83.6074 18.2695 84.0352 18.1113 84.375 17.7949C84.7266 17.4668 84.9023 17.0918 84.9023 16.6699C84.9023 16.1895 84.7266 15.8438 84.375 15.6328C84.0352 15.4102 83.6074 15.2988 83.0918 15.2988H81.7207ZM95.1523 18.3574C94.9766 18.2637 94.7891 18.1934 94.5898 18.1465C94.4023 18.0879 94.1797 18.0586 93.9219 18.0586C93.5117 18.0586 93.1484 18.1816 92.832 18.4277C92.5156 18.6738 92.2578 18.9961 92.0586 19.3945V24H89.0352V15.0352H92.0586V16.6348C92.3398 16.1543 92.6504 15.7383 92.9902 15.3867C93.3418 15.0352 93.7988 14.8594 94.3613 14.8594C94.666 14.8594 94.9297 14.9121 95.1523 15.0176V18.3574ZM100.041 14.7715C100.662 14.7715 101.266 14.8887 101.852 15.123C102.438 15.3574 102.965 15.6855 103.434 16.1074C103.902 16.5293 104.271 17.0332 104.541 17.6191C104.822 18.1934 104.963 18.8262 104.963 19.5176C104.963 20.209 104.822 20.8477 104.541 21.4336C104.271 22.0078 103.902 22.5059 103.434 22.9277C102.965 23.3496 102.438 23.6777 101.852 23.9121C101.266 24.1465 100.662 24.2637 100.041 24.2637C99.4199 24.2637 98.8164 24.1465 98.2305 23.9121C97.6445 23.6777 97.1172 23.3496 96.6484 22.9277C96.1797 22.5059 95.8047 22.0078 95.5234 21.4336C95.2539 20.8477 95.1191 20.209 95.1191 19.5176C95.1191 18.8262 95.2539 18.1934 95.5234 17.6191C95.8047 17.0332 96.1797 16.5293 96.6484 16.1074C97.1172 15.6855 97.6445 15.3574 98.2305 15.123C98.8164 14.8887 99.4199 14.7715 100.041 14.7715ZM100.041 17.6719C99.8301 17.6719 99.5898 17.7188 99.3203 17.8125C99.0625 17.9062 98.8398 18.0879 98.6523 18.3574C98.4648 18.6152 98.3711 19.002 98.3711 19.5176C98.3711 20.0215 98.4648 20.4082 98.6523 20.6777C98.8398 20.9473 99.0625 21.1289 99.3203 21.2227C99.5898 21.3164 99.8301 21.3633 100.041 21.3633C100.264 21.3633 100.504 21.3164 100.762 21.2227C101.02 21.1289 101.242 20.9473 101.43 20.6777C101.617 20.4082 101.711 20.0215 101.711 19.5176C101.711 19.002 101.617 18.6152 101.43 18.3574C101.242 18.0879 101.02 17.9062 100.762 17.8125C100.504 17.7188 100.264 17.6719 100.041 17.6719ZM108.832 15.0352V16.1953C109.113 15.8086 109.412 15.4746 109.729 15.1934C110.045 14.9121 110.502 14.7715 111.1 14.7715C111.697 14.7715 112.23 14.9121 112.699 15.1934C113.168 15.4629 113.537 15.8672 113.807 16.4062C114.088 15.9375 114.457 15.5508 114.914 15.2461C115.383 14.9297 115.904 14.7715 116.479 14.7715C117.393 14.7715 118.137 15.082 118.711 15.7031C119.297 16.3242 119.59 17.2441 119.59 18.4629V24H116.566L116.549 18.9375C116.549 18.4922 116.432 18.1816 116.197 18.0059C115.975 17.8184 115.711 17.7246 115.406 17.7246C115.137 17.7246 114.902 17.8066 114.703 17.9707C114.516 18.1348 114.352 18.3223 114.211 18.5332V24H111.188L111.17 18.9375C111.17 18.4922 111.053 18.1816 110.818 18.0059C110.596 17.8184 110.332 17.7246 110.027 17.7246C109.758 17.7246 109.529 17.8125 109.342 17.9883C109.166 18.1523 108.996 18.3516 108.832 18.5859V24H105.809V15.0352H108.832ZM126.658 14.7715C127.326 14.7715 127.953 14.9414 128.539 15.2812C129.137 15.6211 129.617 16.1426 129.98 16.8457C130.344 17.5488 130.525 18.4453 130.525 19.5352C130.525 20.543 130.338 21.3984 129.963 22.1016C129.6 22.8047 129.107 23.3438 128.486 23.7188C127.877 24.082 127.209 24.2637 126.482 24.2637C126.014 24.2637 125.551 24.1641 125.094 23.9648C124.648 23.7539 124.279 23.4902 123.986 23.1738V28.2188H120.963V15.0352H123.986V16.5293C124.209 16.0371 124.549 15.6211 125.006 15.2812C125.463 14.9414 126.014 14.7715 126.658 14.7715ZM125.762 17.8301C125.516 17.8301 125.252 17.9004 124.971 18.041C124.701 18.1699 124.467 18.375 124.268 18.6562C124.08 18.9258 123.986 19.2773 123.986 19.7109V20.5723C124.256 20.7832 124.549 20.959 124.865 21.0996C125.193 21.2402 125.521 21.3105 125.85 21.3105C126.295 21.3105 126.658 21.1348 126.939 20.7832C127.221 20.4199 127.361 20.0039 127.361 19.5352C127.361 19.0547 127.215 18.6504 126.922 18.3223C126.629 17.9941 126.242 17.8301 125.762 17.8301ZM134.852 12.3984V15.0352H137.207V17.4082H134.852V19.9219C134.852 20.3555 134.939 20.7012 135.115 20.959C135.303 21.2051 135.561 21.3281 135.889 21.3281C136.404 21.3281 136.879 21.1992 137.312 20.9414V23.2969C137.125 23.5547 136.826 23.7832 136.416 23.9824C136.018 24.1699 135.525 24.2637 134.939 24.2637C134.377 24.2637 133.861 24.1348 133.393 23.877C132.924 23.6191 132.543 23.25 132.25 22.7695C131.969 22.2891 131.828 21.709 131.828 21.0293V17.4082H130.316V15.5625C130.891 15.4102 131.453 15.082 132.004 14.5781C132.566 14.0625 132.977 13.3359 133.234 12.3984H134.852ZM141.463 14.7715C142.049 14.7715 142.588 14.8594 143.08 15.0352C143.584 15.1992 143.988 15.4277 144.293 15.7207V18.0938C143.988 17.9062 143.643 17.7305 143.256 17.5664C142.869 17.3906 142.453 17.3027 142.008 17.3027C141.727 17.3027 141.475 17.3613 141.252 17.4785C141.041 17.584 140.936 17.7539 140.936 17.9883C140.936 18.1523 141 18.2754 141.129 18.3574C141.258 18.4395 141.51 18.5273 141.885 18.6211L142.43 18.7617C143.988 19.1602 144.768 19.998 144.768 21.2754C144.768 21.8613 144.592 22.3828 144.24 22.8398C143.9 23.2852 143.449 23.6367 142.887 23.8945C142.336 24.1406 141.738 24.2637 141.094 24.2637C140.426 24.2637 139.805 24.1699 139.23 23.9824C138.656 23.7832 138.164 23.543 137.754 23.2617V20.9062C138.176 21.1641 138.65 21.3809 139.178 21.5566C139.717 21.7324 140.197 21.8203 140.619 21.8203C140.959 21.8203 141.205 21.7793 141.357 21.6973C141.521 21.6152 141.604 21.4688 141.604 21.2578C141.604 21.0938 141.51 20.9707 141.322 20.8887C141.135 20.7949 140.865 20.6895 140.514 20.5723L139.617 20.291C138.961 20.0918 138.48 19.7812 138.176 19.3594C137.871 18.9258 137.719 18.3984 137.719 17.7773C137.719 17.1562 137.883 16.623 138.211 16.1777C138.539 15.7324 138.984 15.3867 139.547 15.1406C140.121 14.8945 140.76 14.7715 141.463 14.7715Z" fill="#9FB500"/>
</svg>
